<?xml version="1.0" encoding="UTF-8" standalone="no"?>
<svg
   aria-hidden="true"
   height="16"
   viewBox="0 0 16 16"
   version="1.1"
   width="16"
   data-view-component="true"
   class="octicon octicon-repo-forked mr-2"
   id="svg1"
   sodipodi:docname="fork.svg"
   inkscape:version="1.4.2 (ebf0e940d0, 2025-05-08)"
   xmlns:inkscape="http://www.inkscape.org/namespaces/inkscape"
   xmlns:sodipodi="http://sodipodi.sourceforge.net/DTD/sodipodi-0.dtd"
   xmlns="http://www.w3.org/2000/svg"
   xmlns:svg="http://www.w3.org/2000/svg">
  <sodipodi:namedview
     id="namedview1"
     pagecolor="#ffffff"
     bordercolor="#666666"
     borderopacity="1.0"
     inkscape:showpageshadow="2"
     inkscape:pageopacity="0.0"
     inkscape:pagecheckerboard="true"
     inkscape:deskcolor="#d1d1d1"
     showgrid="false"
     inkscape:zoom="50.125"
     inkscape:cx="8"
     inkscape:cy="8"
     inkscape:window-width="1920"
     inkscape:window-height="1011"
     inkscape:window-x="1920"
     inkscape:window-y="32"
     inkscape:window-maximized="1"
     inkscape:current-layer="svg1" />
  <defs
     id="defs1" />
  <path
     d="M 5,5.372 V 6.25 C 5,6.664 5.336,7 5.75,7 h 4.5 A 0.75,0.75 0 0 0 11,6.25 V 5.372 a 2.25,2.25 0 1 1 1.5,0 V 6.25 A 2.25,2.25 0 0 1 10.25,8.5 h -1.5 v 2.128 a 2.251,2.251 0 1 1 -1.5,0 V 8.5 H 5.75 A 2.25,2.25 0 0 1 3.5,6.25 V 5.372 a 2.25,2.25 0 1 1 1.5,0 z M 5,3.25 a 0.75,0.75 0 1 0 -1.5,0 0.75,0.75 0 0 0 1.5,0 z M 11.75,4 a 0.75,0.75 0 1 0 0,-1.5 0.75,0.75 0 0 0 0,1.5 z m -3,8.75 a 0.75,0.75 0 1 0 -1.5,0 0.75,0.75 0 0 0 1.5,0 z"
     id="path1"
     style="fill:#000000;fill-opacity:1" />
</svg>
